<svg xmlns="http://www.w3.org/2000/svg" viewBox="0 0 512 512" fill="#ffffff">
  <path d="M177.1 228.6L207.9 320h96.5l29.62-91.38L256 172.1L177.1 228.6zM255.1 0C114.6 0 .0001 114.6 .0001 256S114.6 512 256 512s255.1-114.6 255.1-255.1S397.4 0 255.1 0zM435.2 361.1l-103.9-1.578l-30.67 99.52C286.2 462.2 271.3 464 256 464s-30.19-1.807-44.56-4.93L180.8 359.6L76.83 361.1c-14.93-25.35-24.79-54.01-27.8-84.72L134.3 208.4L100.7 106.8c19.75-22.36 44.14-40.21 71.89-52.06L256 118.3l83.39-63.53c27.75 11.84 52.14 29.7 71.89 52.06l-33.53 101.6l85.29 67.98C460 307.1 450.1 335.8 435.2 361.1z"/>
</svg>